# xmcd CD database file
#
# Track frame offsets:
#	150
#	12274
#	26795
#	40172
#	55290
#	71367
#	85279
#	98437
#	112932
#	139864
#	156293
#	171383
#	186009
#	199177
#	211715
#	226269
#	241632
#	254884
#	268229
#	283752
#
# Disc length: 3965 seconds
#
# Revision: 0
# Processed by: cddbd v1.5.1PL0 Copyright (c) Steve Scherf et al.
# Submitted via: CDex 1.51
#
DISCID=190f7b14
DTITLE=Duke Ellington - The Kings of Big Bands
DYEAR=2004
DGENRE=Jazz
TTITLE0=Take It Easy
TTITLE1=Cotton Tail
TTITLE2=Clementine
TTITLE3=I Got It Bad and That Ain't Good
TTITLE4=All Too Soon
TTITLE5=Jungle Nights in Harlem
TTITLE6=Mood Indigo
TTITLE7=Perdido
TTITLE8=Rockin' in the Rhythm
TTITLE9=Just A-Sittin' and A-Rockin'
TTITLE10=Five O'Clock Whistle
TTITLE11=Harlem Speaks
TTITLE12=In A Mellow Tone
TTITLE13=Sophisticated Lady
TTITLE14=The Mooche
TTITLE15=Flamingo Anderson
TTITLE16=Jump for Joy Ellington
TTITLE17=Take the 'A' Train
TTITLE18=Uptown Downbeat
TTITLE19=Moon Mist (Live at Carnegie Hall)
EXTD=YEAR: 2004
EXTT0=
EXTT1=
EXTT2=
EXTT3=
EXTT4=
EXTT5=
EXTT6=
EXTT7=
EXTT8=
EXTT9=
EXTT10=
EXTT11=
EXTT12=
EXTT13=
EXTT14=
EXTT15=
EXTT16=
EXTT17=
EXTT18=
EXTT19=
PLAYORDER=
